<svg id="Layer_2" data-name="Layer 2" xmlns="http://www.w3.org/2000/svg" viewBox="0 0 327.75 162.66"><defs><style>.cls-1{fill:#3d5567;}.cls-2{fill:#81c241;}</style></defs><path class="cls-1" d="M49.8,134.08H39l-4.41-8.86.61-.92H15.29l.61.92-4.31,8.86H.69L21.12,93h8.36ZM31,116.6l-1-.91-3.15-6.39-1.52-4.16-1.52,4.16-3.09,6.39-1.06.91Z" transform="translate(-0.69 -3.24)"/><path class="cls-1" d="M63.85,134.08H54.12V91.51h9.73Z" transform="translate(-0.69 -3.24)"/><path class="cls-1" d="M95.63,129.52c-3.6,3.3-6.59,5.07-11.15,5.07-7.76,0-11.3-3.8-11.3-11.5V110.57l.45-.86h-5v-7.56h5l-.45-.86V98.1L82.91,93v8.31l-.46.86h9.78v7.56H82.45l.46.86V123c0,2.33,1.21,3.34,2.79,3.34s2.93-.76,4.46-2.38Z" transform="translate(-0.69 -3.24)"/><path class="cls-1" d="M104.45,100.53a5.17,5.17,0,1,1,5.12-5.17A5,5,0,0,1,104.45,100.53Zm4.87,33.55H99.59V102.15h9.73Z" transform="translate(-0.69 -3.24)"/><path class="cls-1" d="M131.62,134.64c-6.18,0-11-1.82-16.42-6.13l5.83-6a15.2,15.2,0,0,0,10.44,4.36c4.2,0,5.67-1,5.67-2.08,0-.91-.5-1.57-3.7-2.28-.66-.15-5-1.27-5.72-1.42-5.43-1.32-11.56-3.5-11.56-9.63,0-5.83,5.63-9.78,14.85-9.78a20.88,20.88,0,0,1,14.9,5.62l-5.62,5.58a13.52,13.52,0,0,0-9.18-3.6c-4.15,0-5.17,1.12-5.17,2.08,0,1.11,1.68,1.57,5.17,2.38.66.2,4.41,1.17,5.12,1.37,6.84,1.62,10.7,4.16,10.7,9.17C146.93,130,141.76,134.64,131.62,134.64Z" transform="translate(-0.69 -3.24)"/><path class="cls-1" d="M168.82,134.59c-11.7,0-17.58-7.25-17.58-16.47s5.88-16.47,17.58-16.47,17.64,7.19,17.64,16.47S180.48,134.59,168.82,134.59Zm0-24.68c-5.47,0-7.85,3.14-7.85,8.21s2.43,8.26,7.91,8.26,7.85-3.19,7.85-8.26S174.3,109.91,168.82,109.91Z" transform="translate(-0.69 -3.24)"/><path class="cls-1" d="M224.73,134.14H215V131.5h-.1a11.86,11.86,0,0,1-8.46,3.09c-9.79,0-14.4-5.22-14.4-13.07V102.15h9.73v18.66c0,3.75,2.13,5.57,6.19,5.57,4.36,0,7-2,7-5.68V102.15h9.73Z" transform="translate(-0.69 -3.24)"/><path class="cls-1" d="M253.07,110.11h-2.79c-6,0-8.46,2.89-8.46,8.16v15.81h-9.73V102.15h9.73V106h.1c1.82-2.68,4.81-4.15,9.17-4.15h2Z" transform="translate(-0.69 -3.24)"/><path class="cls-1" d="M287.49,129.12a19.86,19.86,0,0,1-13.84,5.47c-12,0-17.74-7.25-17.74-16.27s6.44-16.67,17.84-16.67c6.34,0,10.75,2.28,13.58,5.27l-6.23,6.23a9.09,9.09,0,0,0-7.3-3.24c-5.32,0-8.16,3.5-8.16,8.41,0,4.72,2.38,8.06,8.06,8.06a10.37,10.37,0,0,0,7.7-3.4Z" transform="translate(-0.69 -3.24)"/><path class="cls-1" d="M325.76,121.67h-25.4l.92.86a9,9,0,0,0,7.9,4.36,12.53,12.53,0,0,0,8-2.64l5.53,5.58c-3.5,3.09-7.81,4.76-13.59,4.76-12.16,0-18.35-7.19-18.35-16.27,0-9.48,6.49-16.67,17.74-16.67,11.66,0,17.49,7.45,17.49,16.67A19.61,19.61,0,0,1,325.76,121.67Zm-9.43-7.55-.86-.87a7.42,7.42,0,0,0-7-4,7.62,7.62,0,0,0-7,4l-.91.87Z" transform="translate(-0.69 -3.24)"/><polygon class="cls-2" points="251.89 0.37 213.97 0.37 213.95 21.04 163.21 0 21.12 58.94 21.12 68.63 163.21 9.69 305.31 68.63 305.31 58.94 251.89 36.78 251.89 0.37"/><path class="cls-1" d="M324.92,102.26a3.52,3.52,0,1,1,3.52-3.52A3.53,3.53,0,0,1,324.92,102.26Zm0-6.16a2.64,2.64,0,1,0,2.57,2.64A2.64,2.64,0,0,0,324.92,96.1Zm1.7,4.55h-1l-.41-1c-.09-.24-.14-.33-.46-.33h-.43v1.35h-.91V96.84H325a1.23,1.23,0,0,1,1.34,1.24,1.14,1.14,0,0,1-.68.89.7.7,0,0,1,.4.41ZM325,97.75h-.75v.64H325c.35,0,.46-.17.46-.31S325.34,97.75,325,97.75Z" transform="translate(-0.69 -3.24)"/><path class="cls-1" d="M7.65,165.37H6.11v-5.58l-5.37-9h1.7l3.86,6.7c.25.42.33.79.6.79s.48-.75,1-1.58l3.37-5.91h1.69l-5.27,9Z" transform="translate(-0.69 -3.24)"/><path class="cls-1" d="M32.27,163.15a4.31,4.31,0,0,1-4.11,2.75,4.57,4.57,0,0,1-3.63-1.56c-1.38-1.56-1.64-4.05-1.64-5.72a12.68,12.68,0,0,1,.92-5.51,4.44,4.44,0,0,1,4.13-2.64,4.39,4.39,0,0,1,3.91,2,10.86,10.86,0,0,1,1.34,5.75A11.49,11.49,0,0,1,32.27,163.15ZM28.05,151.7a3.32,3.32,0,0,0-3,2.31,12.26,12.26,0,0,0-.64,4.35,10.45,10.45,0,0,0,.77,4.39,3.05,3.05,0,0,0,5.7-.08,10,10,0,0,0,.77-4.47C31.66,156.07,31.33,151.7,28.05,151.7Z" transform="translate(-0.69 -3.24)"/><path class="cls-1" d="M47.91,150.78v10.44a3.08,3.08,0,0,0,3.07,3.4A3.3,3.3,0,0,0,54.52,161V150.78H56V161c0,3.18-1.9,4.88-5,4.88s-4.64-2-4.64-4.84V150.78Z" transform="translate(-0.69 -3.24)"/><path class="cls-1" d="M69.46,150.78h4.77c2.37,0,3.14.66,3.65,1.12A3.6,3.6,0,0,1,79,154.75a3.76,3.76,0,0,1-4,4.05l4.6,6.57H77.72l-4.22-6.46H71v6.46H69.46Zm4,6.81c1.47,0,3.93,0,3.93-2.77,0-2.59-1.91-2.73-3.28-2.73H71v5.5Z" transform="translate(-0.69 -3.24)"/><path class="cls-1" d="M114.93,163.15a4.32,4.32,0,0,1-4.12,2.75,4.54,4.54,0,0,1-3.62-1.56c-1.39-1.56-1.65-4.05-1.65-5.72a12.68,12.68,0,0,1,.92-5.51,4.47,4.47,0,0,1,4.14-2.64,4.42,4.42,0,0,1,3.91,2,11,11,0,0,1,1.34,5.75A11.64,11.64,0,0,1,114.93,163.15Zm-4.22-11.45a3.29,3.29,0,0,0-3,2.31,12.26,12.26,0,0,0-.64,4.35,10.37,10.37,0,0,0,.77,4.4,3,3,0,0,0,5.69-.09,10,10,0,0,0,.77-4.47C114.31,156.07,114,151.7,110.71,151.7Z" transform="translate(-0.69 -3.24)"/><path class="cls-1" d="M131.57,150.78,135.4,160c.35.86.83,2.28,1.18,3.14.16.38.29.86.51.86.07,0,.18-.11.18-.33V150.78h1.45v14.59h-2.66L132,155.46c-.46-1.14-.5-1.25-.92-2.35-.24-.64-.31-1-.48-1a.19.19,0,0,0-.18.19v13.06H129V150.78Z" transform="translate(-0.69 -3.24)"/><path class="cls-1" d="M152.55,150.78h9.21v1.27h-7.69v5h6.61v1.34h-6.61v5.69H162v1.32h-9.45Z" transform="translate(-0.69 -3.24)"/><path class="cls-1" d="M196.57,154.16a3.14,3.14,0,0,0-3.14-2.46,2.46,2.46,0,0,0-2.66,2.51c0,1.58,1.51,2.24,2.24,2.55.57.24,1.53.59,2.11.83,2.13.9,3.27,1.8,3.27,4.22a4.14,4.14,0,0,1-1.51,3.19,5.43,5.43,0,0,1-3.28.9c-2.4,0-3.82-1.54-4.68-3.41l1.32-.64a4.16,4.16,0,0,0,1.76,2.31,4.08,4.08,0,0,0,2.11.48,2.66,2.66,0,0,0,2.83-2.76,2.62,2.62,0,0,0-1.56-2.49l-.72-.35c-.91-.46-1.87-.79-2.8-1.21a4,4,0,0,1-2.08-1.87,4.24,4.24,0,0,1-.4-1.73c0-2.16,1.39-3.76,4.2-3.76,1.84,0,3.19.7,4.35,3Z" transform="translate(-0.69 -3.24)"/><path class="cls-1" d="M219.94,163.15a4.31,4.31,0,0,1-4.11,2.75,4.57,4.57,0,0,1-3.63-1.56c-1.38-1.56-1.64-4.05-1.64-5.72a12.68,12.68,0,0,1,.92-5.51,4.44,4.44,0,0,1,4.13-2.64,4.39,4.39,0,0,1,3.91,2,10.87,10.87,0,0,1,1.34,5.76A11.47,11.47,0,0,1,219.94,163.15Zm-4.22-11.45a3.32,3.32,0,0,0-3,2.31,12.26,12.26,0,0,0-.64,4.35,10.52,10.52,0,0,0,.77,4.4,3.06,3.06,0,0,0,5.7-.09,10,10,0,0,0,.77-4.46C219.33,156.07,219,151.7,215.72,151.7Z" transform="translate(-0.69 -3.24)"/><path class="cls-1" d="M235.58,150.78v10.44a3.09,3.09,0,0,0,3.08,3.4,3.3,3.3,0,0,0,3.53-3.62V150.78h1.48V161c0,3.19-1.89,4.88-5,4.88s-4.64-2-4.64-4.84V150.78Z" transform="translate(-0.69 -3.24)"/><path class="cls-1" d="M257.13,150.78h4.77c2.37,0,3.14.66,3.64,1.12a3.56,3.56,0,0,1,1.08,2.85,3.76,3.76,0,0,1-4,4.05l4.6,6.57h-1.85l-4.22-6.46h-2.53v6.46h-1.51Zm4,6.81c1.48,0,3.94,0,3.94-2.77,0-2.59-1.91-2.72-3.28-2.72h-3.12v5.49Z" transform="translate(-0.69 -3.24)"/><path class="cls-1" d="M287.29,155c-.17-1.87-1.16-3.3-3.05-3.3-3.63,0-3.89,5.29-3.89,6.57s0,6.42,3.8,6.42c2.29,0,3.08-2,3.32-3.56l1.32.39c-.16,1.28-1.06,4.4-4.6,4.4a4.52,4.52,0,0,1-4-2,8.91,8.91,0,0,1-1.34-5.1A12,12,0,0,1,280,153a4.67,4.67,0,0,1,4.39-2.57,4.18,4.18,0,0,1,4.18,4.06Z" transform="translate(-0.69 -3.24)"/><path class="cls-1" d="M302.2,150.78h9.21v1.27h-7.69v5h6.61v1.34h-6.61v5.69h7.93v1.32H302.2Z" transform="translate(-0.69 -3.24)"/><path class="cls-1" d="M321.47,149.46h-1.6v4.46h-1.05v-4.46h-1.6v-.82h4.25Zm4,2.92,1.43-3.74h1.49v5.28h-1v-4.15h0l-1.58,4.15h-.71l-1.58-4.15h0v4.15h-1v-5.28h1.5Z" transform="translate(-0.69 -3.24)"/></svg>